<svg id="visual" viewBox="0 0 900 600" width="900" height="600" xmlns="http://www.w3.org/2000/svg" xmlns:xlink="http://www.w3.org/1999/xlink" version="1.1"><rect x="0" y="0" width="900" height="600" fill="#151515"></rect><path d="M0 287L129 298L257 208L386 259L514 297L643 273L771 212L900 327L900 601L771 601L643 601L514 601L386 601L257 601L129 601L0 601Z" fill="#871400"></path><path d="M0 398L129 331L257 344L386 283L514 308L643 327L771 278L900 274L900 601L771 601L643 601L514 601L386 601L257 601L129 601L0 601Z" fill="#ae3269"></path><path d="M0 359L129 414L257 355L386 375L514 399L643 448L771 375L900 343L900 601L771 601L643 601L514 601L386 601L257 601L129 601L0 601Z" fill="#9c72bf"></path><path d="M0 492L129 431L257 494L386 459L514 489L643 430L771 482L900 471L900 601L771 601L643 601L514 601L386 601L257 601L129 601L0 601Z" fill="#6eabeb"></path><path d="M0 556L129 546L257 495L386 545L514 482L643 520L771 511L900 510L900 601L771 601L643 601L514 601L386 601L257 601L129 601L0 601Z" fill="#78d8f0"></path></svg>