<svg id="visual" viewBox="0 0 900 600" width="900" height="600" xmlns="http://www.w3.org/2000/svg" xmlns:xlink="http://www.w3.org/1999/xlink" version="1.1"><g stroke-width="1" stroke-linejoin="bevel"><path d="M477 344L508 402L638 387Z" fill="#141718" stroke="#2d1627"></path><path d="M508 402L600 493L638 387Z" fill="#121a1b" stroke="#2d1627"></path><path d="M722 136L430 229L477 344Z" fill="#151616" stroke="#2d1627"></path><path d="M689 474L750 336L638 387Z" fill="#131819" stroke="#2d1627"></path><path d="M638 387L722 136L477 344Z" fill="#121a1b" stroke="#2d1627"></path><path d="M600 493L689 474L638 387Z" fill="#121a1c" stroke="#2d1627"></path><path d="M750 336L722 136L638 387Z" fill="#131819" stroke="#2d1627"></path><path d="M271 139L309 267L430 229Z" fill="#121a1c" stroke="#2d1627"></path><path d="M430 229L309 267L477 344Z" fill="#13191a" stroke="#2d1627"></path><path d="M477 344L242 453L508 402Z" fill="#141718" stroke="#2d1627"></path><path d="M508 402L522 600L600 493Z" fill="#121a1b" stroke="#2d1627"></path><path d="M345 600L522 600L508 402Z" fill="#101b1e" stroke="#2d1627"></path><path d="M600 493L660 600L689 474Z" fill="#141718" stroke="#2d1627"></path><path d="M722 136L680 77L430 229Z" fill="#121a1b" stroke="#2d1627"></path><path d="M522 600L660 600L600 493Z" fill="#13191a" stroke="#2d1627"></path><path d="M900 517L900 282L750 336Z" fill="#101b1e" stroke="#2d1627"></path><path d="M750 336L900 282L722 136Z" fill="#111b1d" stroke="#2d1627"></path><path d="M780 0L659 0L680 77Z" fill="#111b1d" stroke="#2d1627"></path><path d="M900 517L750 336L689 474Z" fill="#13191a" stroke="#2d1627"></path><path d="M660 600L781 600L689 474Z" fill="#131819" stroke="#2d1627"></path><path d="M309 267L242 453L477 344Z" fill="#131819" stroke="#2d1627"></path><path d="M242 453L345 600L508 402Z" fill="#151515" stroke="#2d1627"></path><path d="M780 0L680 77L722 136Z" fill="#111b1d" stroke="#2d1627"></path><path d="M680 77L467 0L430 229Z" fill="#101b1e" stroke="#2d1627"></path><path d="M659 0L467 0L680 77Z" fill="#121a1b" stroke="#2d1627"></path><path d="M467 0L271 139L430 229Z" fill="#151515" stroke="#2d1627"></path><path d="M309 267L154 228L242 453Z" fill="#101b1e" stroke="#2d1627"></path><path d="M781 600L900 517L689 474Z" fill="#151515" stroke="#2d1627"></path><path d="M900 282L900 138L722 136Z" fill="#101b1e" stroke="#2d1627"></path><path d="M900 138L780 0L722 136Z" fill="#111b1d" stroke="#2d1627"></path><path d="M271 139L154 228L309 267Z" fill="#151616" stroke="#2d1627"></path><path d="M781 600L900 600L900 517Z" fill="#0f1c1f" stroke="#2d1627"></path><path d="M467 0L253 0L271 139Z" fill="#121a1c" stroke="#2d1627"></path><path d="M271 139L103 78L154 228Z" fill="#101b1e" stroke="#2d1627"></path><path d="M112 495L192 600L242 453Z" fill="#151616" stroke="#2d1627"></path><path d="M242 453L192 600L345 600Z" fill="#13191a" stroke="#2d1627"></path><path d="M900 138L900 0L780 0Z" fill="#151515" stroke="#2d1627"></path><path d="M154 228L112 495L242 453Z" fill="#111b1d" stroke="#2d1627"></path><path d="M253 0L103 78L271 139Z" fill="#151616" stroke="#2d1627"></path><path d="M154 228L0 326L112 495Z" fill="#141718" stroke="#2d1627"></path><path d="M0 235L0 326L154 228Z" fill="#101b1e" stroke="#2d1627"></path><path d="M0 326L0 410L112 495Z" fill="#121a1c" stroke="#2d1627"></path><path d="M112 495L0 600L192 600Z" fill="#121a1c" stroke="#2d1627"></path><path d="M103 78L0 235L154 228Z" fill="#151616" stroke="#2d1627"></path><path d="M253 0L95 0L103 78Z" fill="#101b1e" stroke="#2d1627"></path><path d="M103 78L0 0L0 235Z" fill="#111b1d" stroke="#2d1627"></path><path d="M0 410L0 600L112 495Z" fill="#13191a" stroke="#2d1627"></path><path d="M95 0L0 0L103 78Z" fill="#101b1e" stroke="#2d1627"></path></g></svg>